:FULLY-SPECIFIED
:FORCE-ALL-JOINTS-BE-3DOF
:DEGREES
306
root -0.848063 15.4624 -36.2465 14.667 65.2856 12.0176
lfemur -19.2777 18.7343 -22.2475
ltibia 57.0648 -0 0
lfoot -27.7668 29.1446 0.0636464
ltoes 0.621048 -0 0
rfemur -40.5349 -10.6198 14.0538
rtibia 77.5889 -0 0
rfoot -11.0964 -17.1081 -0.0579075
rtoes -20.6286 0 0
lowerback 17.529 -0.143081 -6.16421
upperback -1.41121 -1.13867 2.57221
thorax -11.0736 -0.0480069 6.73343
lowerneck -6.33686 3.60143 0.84058
upperneck 5.20174 5.06445 -4.24981
head 2.95694 2.38453 -1.30437
lclavicle -7.69297e-014 -5.56597e-015 0
lhumerus 22.8518 -19.7591 67.3124
lradius 26.1924 -0 0
lwrist -47.0948 0 0
lhand -21.3582 38.7918 0.15216
lfingers 7.12502 -0 0
lthumb 5.02867 68.7013 0.14744
rclavicle -7.69297e-014 -5.56597e-015 0
rhumerus -54.2314 21.4451 -91.2957
rradius 125.768 -0 0
rwrist -63.3433 0 0
rhand 44.1333 -10.7507 -1.3546
rfingers 7.12502 -0 0
rthumb 65.9122 -19.9956 -1.76518
307
root -0.733631 15.4469 -36.2089 15.8392 66.8603 14.0189
lfemur -17.9404 17.2314 -22.3846
ltibia 56.5619 -0 0
lfoot -27.5134 28.9937 0.0570429
ltoes -0.351111 0 0
rfemur -42.3797 -10.1944 14.2349
rtibia 78.7058 -0 0
rfoot -11.037 -15.5127 -0.0821338
rtoes -19.6236 0 0
lowerback 18.2209 -0.116183 -6.94889
upperback -1.23019 -1.32578 2.44378
thorax -11.2332 -0.0884618 7.10476
lowerneck -6.25965 3.25342 0.585647
upperneck 5.13049 4.58933 -3.85824
head 2.87752 2.1579 -1.15759
lclavicle -7.69297e-014 -5.56597e-015 0
lhumerus 24.415 -22.5653 67.3997
lradius 27.0465 -0 0
lwrist -45.384 0 0
lhand -21.8962 38.2579 0.144462
lfingers 7.12502 -0 0
lthumb 4.50927 68.1828 0.140576
rclavicle -7.69297e-014 -5.56597e-015 0
rhumerus -53.1461 23.0499 -91.2568
rradius 127.288 -0 0
rwrist -62.1853 0 0
rhand 42.9351 -10.8412 -1.32304
rfingers 7.12502 -0 0
rthumb 64.9276 -21.3026 -1.67258
308
root -0.6192 15.4313 -36.1713 17.2226 68.3937 16.2102
lfemur -16.6197 15.735 -22.5376
ltibia 56.0684 -0 0
lfoot -27.2631 28.8451 0.0502291
ltoes -1.32543 0 0
rfemur -44.1985 -9.76644 14.3834
rtibia 79.7568 -0 0
rfoot -10.9647 -13.9031 -0.100937
rtoes -18.5898 0 0
lowerback 18.8938 -0.0727891 -7.71753
upperback -1.05185 -1.49848 2.31173
thorax -11.3883 -0.122632 7.45976
lowerneck -6.17795 2.89913 0.323803
upperneck 5.05369 4.1059 -3.46096
head 2.79836 1.9273 -1.00761
lclavicle -7.69297e-014 -5.56597e-015 0
lhumerus 25.8443 -25.3984 67.454
lradius 28.0369 -0 0
lwrist -43.5266 0 0
lhand -22.4079 37.7359 0.131816
lfingers 7.12502 -0 0
lthumb 4.01531 67.6751 0.128965
rclavicle -7.69297e-014 -5.56597e-015 0
rhumerus -51.9067 24.6674 -91.1272
rradius 128.587 -0 0
rwrist -60.9023 0 0
rhand 41.624 -10.9693 -1.26588
rfingers 7.12502 -0 0
rthumb 63.8377 -22.6616 -1.55671
309
root -0.504768 15.4157 -36.1337 18.8446 69.8764 18.6104
lfemur -15.3209 14.2635 -22.7013
ltibia 55.5859 -0 0
lfoot -27.0226 28.7051 0.0434045
ltoes -2.28725 0 0
rfemur -45.9696 -9.34038 14.4934
rtibia 80.7232 -0 0
rfoot -10.8725 -12.296 -0.113366
rtoes -17.5331 0 0
lowerback 19.5373 -0.0135116 -8.46197
upperback -0.878149 -1.65389 2.17722
thorax -11.5359 -0.149853 7.79407
lowerneck -6.09293 2.53903 0.0556672
upperneck 4.97202 3.61497 -3.06056
head 2.7206 1.69302 -0.855213
lclavicle -7.69297e-014 -5.56597e-015 0
lhumerus 27.0944 -28.2151 67.494
lradius 29.1513 -0 0
lwrist -41.5331 0 0
lhand -22.8816 37.2334 0.115069
lfingers 7.12502 -0 0
lthumb 3.558 67.1853 0.113368
rclavicle -7.69297e-014 -5.56597e-015 0
rhumerus -50.4978 26.2707 -90.8892
rradius 129.633 -0 0
rwrist -59.5077 0 0
rhand 40.2104 -11.1344 -1.18397
rfingers 7.12502 -0 0
rthumb 62.6493 -24.0549 -1.42115
310
root -0.390336 15.4002 -36.0961 20.734 71.2985 21.2393
lfemur -14.0496 12.8352 -22.8697
ltibia 55.1159 -0 0
lfoot -26.7987 28.5796 0.0366873
ltoes -3.22191 0 0
rfemur -47.6714 -8.92123 14.5595
rtibia 81.5863 -0 0
rfoot -10.7531 -10.7077 -0.118812
rtoes -16.4589 0 0
lowerback 20.1412 0.0606203 -9.1741
upperback -0.711086 -1.78918 2.04148
thorax -11.6731 -0.16951 8.10331
lowerneck -6.00578 2.17358 -0.218125
upperneck 4.88623 3.11733 -2.65965
head 2.64537 1.45535 -0.701205
lclavicle -7.69297e-014 -5.56597e-015 0
lhumerus 28.1137 -30.9726 67.5469
lradius 30.3772 -0 0
lwrist -39.4139 0 0
lhand -23.3057 36.7579 0.0953644
lfingers 7.12502 -0 0
lthumb 3.14853 66.7207 0.0948265
rclavicle -7.69297e-014 -5.56597e-015 0
rhumerus -48.9035 27.8318 -90.525
rradius 130.392 -0 0
rwrist -58.015 0 0
rhand 38.7042 -11.336 -1.07825
rfingers 7.12502 -0 0
rthumb 61.3693 -25.465 -1.2686
